<svg width="593" height="175" viewBox="0 0 593 175" fill="none" xmlns="http://www.w3.org/2000/svg">
<path d="M0.678978 91.8494V71.3949L97.8381 26.5085V51.7216L28.804 81.3381L29.5852 79.9886V83.2557L28.804 81.9062L97.8381 111.523V136.736L0.678978 91.8494ZM130.917 153V7.54545H157.266V69.1222H224.667V7.54545H251.087V153H224.667V91.2102H157.266V153H130.917ZM279.745 153V7.54545H306.094V74.3778H307.87L364.617 7.54545H396.79L340.54 72.8153L397.288 153H365.612L322.217 90.642L306.094 109.676V153H279.745ZM473.335 0.727263L426.46 174.875H403.946L450.821 0.727263H473.335ZM592.369 105.486L495.21 150.372V125.159L564.244 95.5426L563.463 96.892V93.625L564.244 94.9744L495.21 65.358V40.1449L592.369 85.0312V105.486Z" fill="black"/>
</svg>
